<svg width="92" height="92" viewBox="0 0 92 92" fill="none" xmlns="http://www.w3.org/2000/svg">
<path d="M62.5983 30.774C67.9935 38.7626 70.6579 47.7735 69.6619 58.1471C69.6577 58.191 69.635 58.2313 69.5992 58.2578C65.5136 61.2791 61.5551 63.1127 57.6522 64.3286C57.6218 64.3379 57.5893 64.3374 57.5592 64.3272C57.5291 64.3169 57.503 64.2975 57.4844 64.2715C56.5827 63.008 55.7634 61.676 55.0457 60.2772C55.0045 60.1948 55.0421 60.0956 55.1269 60.0631C56.4281 59.5694 57.6653 58.9776 58.8554 58.277C58.9492 58.2217 58.9552 58.0864 58.8686 58.0215C58.616 57.8326 58.3658 57.6342 58.1263 57.4357C58.0815 57.399 58.0212 57.3918 57.9705 57.4165C50.2441 61.0097 41.7802 61.0097 33.9624 57.4165C33.9116 57.3936 33.8513 57.4015 33.8077 57.4375C33.5689 57.636 33.3181 57.8326 33.0679 58.0215C32.9813 58.0864 32.9885 58.2217 33.0828 58.277C34.2729 58.9644 35.5102 59.5694 36.8096 60.0655C36.8938 60.098 36.9338 60.1948 36.892 60.2772C36.1897 61.6778 35.3705 63.0098 34.4521 64.2733C34.4121 64.3244 34.3464 64.3479 34.2843 64.3286C30.3999 63.1127 26.4414 61.2791 22.3558 58.2578C22.3217 58.2313 22.2973 58.1892 22.2937 58.1453C21.4613 49.1723 23.1577 40.0868 29.3507 30.7722C29.3656 30.7476 29.3883 30.7283 29.4146 30.7169C32.4618 29.3085 35.7264 28.2723 39.1384 27.6806C39.2005 27.671 39.2626 27.6998 39.2949 27.7551C39.7165 28.5069 40.1984 29.4709 40.5244 30.2586C44.121 29.7054 47.7737 29.7054 51.4455 30.2586C51.7715 29.4877 52.2367 28.5069 52.6565 27.7551C52.6715 27.7277 52.6946 27.7057 52.7227 27.6923C52.7508 27.6789 52.7824 27.6748 52.813 27.6806C56.2268 28.2741 59.4914 29.3103 62.5362 30.7169C62.5631 30.7283 62.5852 30.7476 62.5983 30.774ZM42.3528 47.8349C42.3905 45.1822 40.4701 42.9872 38.0594 42.9872C35.6684 42.9872 33.7665 45.163 33.7665 47.8349C33.7665 50.5062 35.7061 52.6819 38.0594 52.6819C40.4509 52.6819 42.3528 50.5062 42.3528 47.8349ZM58.226 47.8349C58.2637 45.1822 56.3433 42.9872 53.9332 42.9872C51.5416 42.9872 49.6398 45.163 49.6398 47.8349C49.6398 50.5062 51.5793 52.6819 53.9332 52.6819C56.3433 52.6819 58.226 50.5062 58.226 47.8349Z" fill="white"/>
</svg>
