<svg width="92" height="92" viewBox="0 0 92 92" fill="none" xmlns="http://www.w3.org/2000/svg">
<path d="M45.7472 73.0518C30.5867 73.0518 18.2472 60.7123 18.2472 45.5518C18.2472 30.3913 30.5867 18.0518 45.7472 18.0518C60.9077 18.0518 73.2472 30.3913 73.2472 45.5518C73.2472 60.7123 60.9077 73.0518 45.7472 73.0518ZM45.7472 22.4873C33.0262 22.4873 22.6827 32.8309 22.6827 45.5518C22.6827 58.2728 33.0262 68.6163 45.7472 68.6163C58.4682 68.6163 68.8117 58.2728 68.8117 45.5518C68.8117 32.8309 58.4682 22.4873 45.7472 22.4873Z" fill="white"/>
<path d="M37.7645 42.8462C32.5661 42.8462 26.9419 42.0744 20.9451 40.5132C19.7564 40.2027 19.0467 38.9962 19.3572 37.8075C19.6677 36.6188 20.8741 35.9091 22.0629 36.2196C40.2306 40.939 54.4508 37.9494 63.1798 27.5882C63.9693 26.6567 65.3709 26.5325 66.3024 27.322C67.2427 28.1115 67.358 29.5132 66.5685 30.4446C59.6403 38.668 49.8467 42.8462 37.7645 42.8462Z" fill="white"/>
<path d="M26.6766 64.3671C26.1621 64.3671 25.6565 64.1897 25.2395 63.8349C24.3081 63.0365 24.2016 61.6349 24.9912 60.7034C37.9605 45.5429 54.7444 41.9413 71.0404 50.8389C72.1137 51.4244 72.5129 52.7728 71.9274 53.8461C71.342 54.9195 69.9936 55.3187 68.9202 54.7332C49.3508 44.0615 35.1129 55.7002 28.3621 63.5953C27.9274 64.101 27.3065 64.3671 26.6766 64.3671Z" fill="white"/>
<path d="M53.0125 71.9879C52.9327 71.9879 52.8528 71.9879 52.773 71.979C51.5577 71.8459 50.6794 70.7548 50.8125 69.5306C52.5423 53.6693 48.4617 37.675 38.6948 21.9734C38.0472 20.9355 38.3665 19.5693 39.4044 18.9217C40.4423 18.2742 41.8085 18.5935 42.456 19.6314C52.7641 36.1935 57.0577 53.1459 55.2214 70.0185C55.0883 71.154 54.1302 71.9879 53.0125 71.9879Z" fill="white"/>
</svg>
