<svg width="93" height="92" viewBox="0 0 93 92" fill="none" xmlns="http://www.w3.org/2000/svg">
<path fill-rule="evenodd" clip-rule="evenodd" d="M46.2951 21.0479C32.0767 21.0479 20.5604 32.5183 20.5604 46.6802C20.5604 58.0225 27.927 67.6026 38.1565 70.9989C39.4433 71.2232 39.9258 70.4542 39.9258 69.7813C39.9258 69.1726 39.8936 67.154 39.8936 65.0073C33.4278 66.1928 31.755 63.4373 31.2403 61.9955C30.9508 61.2586 29.6962 58.9837 28.6025 58.375C27.7018 57.8943 26.4151 56.7089 28.5703 56.6768C30.597 56.6448 32.0445 58.5352 32.5271 59.3041C34.8432 63.181 38.5425 62.0916 40.0223 61.4188C40.2475 59.7527 40.923 58.6313 41.6629 57.9905C35.9369 57.3497 29.9536 55.1389 29.9536 45.3345C29.9536 42.547 30.9508 40.2401 32.5914 38.4458C32.3341 37.805 31.4333 35.1777 32.8487 31.6532C32.8487 31.6532 35.004 30.9804 39.9258 34.2806C41.9846 33.7038 44.172 33.4155 46.3595 33.4155C48.5469 33.4155 50.7344 33.7038 52.7931 34.2806C57.7149 30.9483 59.8702 31.6532 59.8702 31.6532C61.2856 35.1777 60.3849 37.805 60.1275 38.4458C61.7681 40.2401 62.7653 42.5149 62.7653 45.3345C62.7653 55.1709 56.7498 57.3497 51.0239 57.9905C51.9568 58.7915 52.761 60.3294 52.761 62.7325C52.761 66.1608 52.7288 68.9163 52.7288 69.7813C52.7288 70.4542 53.2113 71.2552 54.4981 70.9989C64.6633 67.6026 72.0298 57.9905 72.0298 46.6802C72.0298 32.5183 60.5135 21.0479 46.2951 21.0479Z" fill="white"/>
</svg>
