<svg width="93" height="92" viewBox="0 0 93 92" fill="none" xmlns="http://www.w3.org/2000/svg">
<path d="M23.5117 66.1846H31.9944V45.5837L19.8762 36.4951V62.5491C19.8762 64.5607 21.5061 66.1846 23.5117 66.1846Z" fill="white"/>
<path d="M61.078 66.1846H69.5607C71.5723 66.1846 73.1962 64.5547 73.1962 62.5491V36.4951L61.078 45.5837" fill="white"/>
<path d="M61.078 29.8303V45.5839L73.1962 36.4953V31.6481C73.1962 27.1522 68.0641 24.5892 64.4711 27.2855" fill="white"/>
<path d="M31.9944 45.5837V29.8301L46.5362 40.7364L61.078 29.8301V45.5837L46.5362 56.49" fill="white"/>
<path d="M19.8762 31.6481V36.4953L31.9944 45.5839V29.8303L28.6013 27.2855C25.0022 24.5892 19.8762 27.1522 19.8762 31.6481Z" fill="white"/>
</svg>
