<svg width="93" height="92" viewBox="0 0 93 92" fill="none" xmlns="http://www.w3.org/2000/svg">
<path fill-rule="evenodd" clip-rule="evenodd" d="M46.6039 22.9884C34.0066 22.9884 23.6997 33.3044 23.6997 45.9129C23.6997 58.5214 34.0066 68.8375 46.6039 68.8375C59.2012 68.8375 69.5081 58.5214 69.5081 45.9129C69.5081 33.3044 59.3157 22.9884 46.6039 22.9884ZM57.1398 56.1144C56.6817 56.8021 55.8801 57.0314 55.193 56.5729C49.8105 53.2488 43.0537 52.5611 35.0373 54.395C34.2356 54.6243 33.5485 54.0512 33.3195 53.3634C33.0904 52.5611 33.663 51.8733 34.3502 51.6441C43.0537 49.6955 50.6121 50.4979 56.5672 54.1658C57.3689 54.5097 57.4834 55.4266 57.1398 56.1144ZM59.8883 49.8101C59.3157 50.6125 58.285 50.9563 57.4834 50.3832C51.2992 46.6007 41.9085 45.4545 34.6937 47.7469C33.7775 47.9762 32.7469 47.5177 32.5178 46.6007C32.2888 45.6837 32.7469 44.6521 33.663 44.4229C42.0231 41.9012 52.3299 43.162 59.4302 47.5177C60.1174 47.8615 60.4609 49.0078 59.8883 49.8101ZM60.1174 43.3912C52.788 39.0356 40.5343 38.5771 33.5485 40.7549C32.4033 41.0988 31.2581 40.4111 30.9145 39.3794C30.571 38.2332 31.2581 37.087 32.2888 36.7431C40.4198 34.3361 53.8187 34.7945 62.2933 39.8379C63.3239 40.4111 63.6675 41.7865 63.0949 42.8181C62.5223 43.6205 61.148 43.9644 60.1174 43.3912Z" fill="white"/>
</svg>
