<svg width="74" height="59" viewBox="0 0 74 59" fill="none" xmlns="http://www.w3.org/2000/svg">
<path d="M14.346 18.064C19.21 18.064 21.642 15.8027 21.642 11.28V6.928C21.642 2.576 23.1353 0.399998 26.122 0.399998C29.2793 0.399998 30.858 2.36266 30.858 6.288V49.552C30.858 52.624 30.0047 54.8427 28.298 56.208C26.6767 57.5733 24.2447 58.256 21.002 58.256H10.378C6.96467 58.256 4.40467 57.5733 2.698 56.208C0.991334 54.7573 0.138 52.4107 0.138 49.168L0.266 26.768C0.266 21.0507 3.594 18.1493 10.25 18.064H14.346ZM9.482 45.968C9.482 51.2587 11.1887 53.904 14.602 53.904H16.266C19.85 53.904 21.642 51.3013 21.642 46.096V30.992C21.642 25.36 19.978 22.544 16.65 22.544H14.73C11.3167 22.544 9.61 25.1467 9.61 30.352L9.482 45.968ZM61.832 39.824H53.512C46.4293 39.824 42.888 37.392 42.888 32.528V27.152C42.888 21.0933 46.3013 18.064 53.128 18.064H67.464C70.7067 18.064 72.328 18.7467 72.328 20.112C72.328 21.7333 70.6213 22.544 67.208 22.544H55.816C53.3413 22.544 52.104 23.952 52.104 26.768V32.4C52.104 34.6187 53.3413 35.728 55.816 35.728H63.112C69.5973 35.728 73.096 38.3733 73.608 43.664V48.784C73.608 54.928 70.2373 58 63.496 58H47.624C44.4667 58 42.888 57.1893 42.888 55.568C42.888 54.032 44.5947 53.264 48.008 53.264H61.832C64.3067 53.264 65.544 51.8987 65.544 49.168V43.408C65.544 41.0187 64.3067 39.824 61.832 39.824Z" fill="#00737A"/>
</svg>
